<?xml version="1.0" encoding="UTF-8"?>
<svg width="111px" height="24px" viewBox="0 0 111 24" version="1.1" xmlns="http://www.w3.org/2000/svg" xmlns:xlink="http://www.w3.org/1999/xlink">
    <!-- Generator: Sketch 48.2 (47327) - http://www.bohemiancoding.com/sketch -->
    <title>Logo</title>
    <desc>Created with Sketch.</desc>
    <defs></defs>
    <g id="Screen-Start" stroke="none" stroke-width="1" fill="none" fill-rule="evenodd" transform="translate(-56.000000, -64.000000)">
        <g id="Logo" transform="translate(56.000000, 64.000000)">
            <path d="M2.70679518,11.2106667 L0.363759036,11.2106667 L1.06987952,7.65866667 L3.41291566,7.65866667 L3.57339759,6.82666667 C3.95855614,4.82132331 4.66466956,3.30667179 5.69175904,2.28266667 C6.71884851,1.25866155 8.1738701,0.746666667 10.0568675,0.746666667 C11.0625592,0.746666667 11.9238036,0.895998507 12.6406265,1.19466667 C13.3574494,1.49333483 14.00472,1.91999723 14.5824578,2.47466667 L12.3357108,5.25866667 C12.0789385,5.02399883 11.7954232,4.83200075 11.4851566,4.68266667 C11.17489,4.53333259 10.7843879,4.45866667 10.3136386,4.45866667 C9.77869612,4.45866667 9.31865253,4.62933163 8.93349398,4.97066667 C8.54833542,5.31200171 8.27016953,5.84532971 8.09898795,6.57066667 L7.84221687,7.65866667 L11.2444337,7.65866667 L10.5383133,11.2106667 L7.13609639,11.2106667 L4.92144578,22.6666667 L0.492144578,22.6666667 L2.70679518,11.2106667 Z M20.9321928,16.0746667 C20.7182158,16.0319998 20.4507486,15.9893335 20.1297831,15.9466667 C19.8088177,15.9039998 19.4343636,15.8826667 19.0064096,15.8826667 C17.850934,15.8826667 16.9896896,16.0959979 16.4226506,16.5226667 C15.8556116,16.9493355 15.5720964,17.49333 15.5720964,18.1546667 C15.5720964,18.7093361 15.7325767,19.1253319 16.0535422,19.4026667 C16.3745076,19.6800014 16.8131538,19.8186667 17.369494,19.8186667 C17.6904594,19.8186667 18.0274681,19.7706671 18.3805301,19.6746667 C18.7335921,19.5786662 19.0652515,19.4240011 19.3755181,19.2106667 C19.6857847,18.9973323 19.9586012,18.725335 20.1939759,18.3946667 C20.4293506,18.0639983 20.6005296,17.6640023 20.7075181,17.1946667 L20.9321928,16.0746667 Z M19.9372048,21.2586667 C19.3166716,21.9200033 18.6426542,22.3946652 17.9151325,22.6826667 C17.1876108,22.9706681 16.4066066,23.1146667 15.5720964,23.1146667 C14.9943586,23.1146667 14.4433761,23.0186676 13.9191325,22.8266667 C13.3948889,22.6346657 12.9348454,22.3520019 12.538988,21.9786667 C12.1431306,21.6053315 11.8328686,21.1520027 11.6081928,20.6186667 C11.3835169,20.0853307 11.2711807,19.4773367 11.2711807,18.7946667 C11.2711807,17.9413291 11.4423597,17.1573369 11.7847229,16.4426667 C12.127086,15.7279964 12.6192257,15.1200025 13.2611566,14.6186667 C13.9030875,14.1173308 14.6787424,13.7280014 15.5881446,13.4506667 C16.4975467,13.1733319 17.5299701,13.0346667 18.6854458,13.0346667 C19.2203882,13.0346667 19.6857812,13.0506665 20.0816386,13.0826667 C20.477496,13.1146668 20.9428889,13.1626663 21.4778313,13.2266667 L21.5420241,12.9066667 C21.5634218,12.7999995 21.5794698,12.7040004 21.5901687,12.6186667 C21.6008675,12.5333329 21.6062169,12.4480004 21.6062169,12.3626667 C21.6062169,11.70133 21.3334003,11.2480012 20.787759,11.0026667 C20.2421178,10.7573321 19.6162445,10.6346667 18.9101205,10.6346667 C17.9686218,10.6346667 17.1822682,10.7573321 16.5510361,11.0026667 C15.9198041,11.2480012 15.3260269,11.5306651 14.7696867,11.8506667 L13.1969639,9.09866667 C13.9030879,8.60799755 14.8231751,8.16000203 15.957253,7.75466667 C17.091331,7.34933131 18.3965709,7.14666667 19.873012,7.14666667 C21.7560094,7.14666667 23.2056817,7.59466219 24.2220723,8.49066667 C25.2384629,9.38667115 25.7466506,10.6879915 25.7466506,12.3946667 C25.7466506,12.6293345 25.7306026,12.8853319 25.698506,13.1626667 C25.6664095,13.4400014 25.6289641,13.7066654 25.5861687,13.9626667 L23.8850602,22.6666667 L19.7767229,22.6666667 L19.9372048,21.2586667 Z M29.4965783,18.0586667 C30.2454977,18.6133361 30.9516111,19.0186654 31.6149398,19.2746667 C32.2782684,19.5306679 33.0592726,19.6586667 33.9579759,19.6586667 C35.3488262,19.6586667 36.044241,19.2213377 36.044241,18.3466667 C36.044241,18.1333323 35.9960969,17.9520007 35.8998072,17.8026667 C35.8035176,17.6533326 35.6430373,17.509334 35.4183614,17.3706667 C35.1936856,17.2319993 34.9101704,17.0880007 34.5678072,16.9386667 C34.2254441,16.7893326 33.7974965,16.5973345 33.2839518,16.3626667 C32.8559979,16.1706657 32.4333997,15.9520012 32.0161446,15.7066667 C31.5988895,15.4613321 31.2297847,15.1680017 30.9088193,14.8266667 C30.5878538,14.4853316 30.325736,14.0906689 30.1224578,13.6426667 C29.9191797,13.1946644 29.8175422,12.672003 29.8175422,12.0746667 C29.8175422,11.2426625 29.9833718,10.5173364 30.3150361,9.89866667 C30.6467005,9.27999691 31.0960454,8.76800203 31.6630843,8.36266667 C32.2301233,7.95733131 32.8880926,7.65333435 33.637012,7.45066667 C34.3859315,7.24799899 35.1883331,7.14666667 36.044241,7.14666667 C37.0713304,7.14666667 38.0663084,7.31733163 39.0292048,7.65866667 C39.9921012,8.00000171 40.9228871,8.56532939 41.8215904,9.35466667 L39.5106506,11.9786667 C38.3765726,11.0399953 37.1997169,10.5706667 35.9800482,10.5706667 C35.359515,10.5706667 34.8994714,10.6879988 34.5999036,10.9226667 C34.3003359,11.1573345 34.1505542,11.4239985 34.1505542,11.7226667 C34.1505542,11.9573345 34.1879996,12.1546659 34.2628916,12.3146667 C34.3377835,12.4746675 34.4822158,12.6293326 34.6961928,12.7786667 C34.9101697,12.9280007 35.2150824,13.0986657 35.6109398,13.2906667 C36.0067972,13.4826676 36.5256835,13.7279985 37.1676145,14.0266667 C38.1947039,14.5173358 39.0078042,15.0773302 39.6069398,15.7066667 C40.2060753,16.3360031 40.5056386,17.1306619 40.5056386,18.0906667 C40.5056386,18.9653377 40.3398089,19.7226635 40.0081446,20.3626667 C39.6764803,21.0026699 39.2271354,21.5306646 38.6600964,21.9466667 C38.0930574,22.3626687 37.4243894,22.671999 36.6540723,22.8746667 C35.8837552,23.0773343 35.0599562,23.1786667 34.1826506,23.1786667 C32.8987888,23.1786667 31.6951863,23.013335 30.5718072,22.6826667 C29.4484281,22.3519983 28.3946073,21.7813374 27.4103133,20.9706667 L29.4965783,18.0586667 Z M46.2776386,11.2106667 L44.0308916,11.2106667 L44.7049157,7.65866667 L46.9516627,7.65866667 L47.8503614,2.79466667 L52.3438554,2.79466667 L51.4130602,7.65866667 L55.1683373,7.65866667 L54.4943133,11.2106667 L50.7390361,11.2106667 L49.5514699,17.2586667 C49.4872768,17.5573348 49.4551807,17.8346654 49.4551807,18.0906667 C49.4551807,18.5173355 49.5675169,18.8586654 49.7921928,19.1146667 C50.0168686,19.3706679 50.364576,19.4986667 50.8353253,19.4986667 C51.2632792,19.4986667 51.632384,19.429334 51.9426506,19.2906667 C52.2529172,19.1519993 52.5899259,18.9440014 52.9536867,18.6666667 L54.7510843,21.4506667 C54.0021649,22.0693364 53.2051127,22.5173319 52.3599036,22.7946667 C51.5146946,23.0720014 50.6641489,23.2106667 49.808241,23.2106667 C46.5343933,23.2106667 44.897494,21.7813476 44.897494,18.9226667 C44.897494,18.6239985 44.9188914,18.3200015 44.9616867,18.0106667 C45.0044821,17.7013318 45.0579756,17.3653351 45.1221687,17.0026667 L46.2776386,11.2106667 Z M65.2733494,7.14666667 C66.3218366,7.14666667 67.2365744,7.32799819 68.0175904,7.69066667 C68.7986063,8.05333515 69.445877,8.52799707 69.9594217,9.11466667 C70.4729664,9.70133627 70.8527699,10.3786628 71.0988434,11.1466667 C71.3449169,11.9146705 71.4679518,12.7039959 71.4679518,13.5146667 C71.4679518,14.0480027 71.4358557,14.5546643 71.3716627,15.0346667 C71.3074696,15.5146691 71.2111814,16.0106641 71.0827952,16.5226667 L61.1329157,16.5226667 C61.1329157,17.4400046 61.4592257,18.1866638 62.1118554,18.7626667 C62.7644852,19.3386695 63.5722361,19.6266667 64.5351325,19.6266667 C65.3054496,19.6266667 66.0222617,19.4986679 66.6855904,19.2426667 C67.348919,18.9866654 67.9801416,18.656002 68.5792771,18.2506667 L70.3445783,21.1626667 C69.445875,21.7813364 68.4722944,22.2719982 67.4238072,22.6346667 C66.3753201,22.9973351 65.209163,23.1786667 63.9253012,23.1786667 C62.9624048,23.1786667 62.047667,23.0453347 61.1810602,22.7786667 C60.3144535,22.5119987 59.5548466,22.1013361 58.9022169,21.5466667 C58.2495871,20.9919972 57.7307007,20.2933375 57.3455422,19.4506667 C56.9603836,18.6079958 56.7678072,17.6000059 56.7678072,16.4266667 C56.7678072,15.0613265 56.981781,13.8080057 57.4097349,12.6666667 C57.8376889,11.5253276 58.4314661,10.5440041 59.1910843,9.72266667 C59.9507026,8.90132923 60.8493924,8.26666891 61.8871807,7.81866667 C62.924969,7.37066443 64.0536806,7.14666667 65.2733494,7.14666667 Z M67.3275181,13.6426667 C67.3703135,13.514666 67.3917108,13.3973339 67.3917108,13.2906667 L67.3917108,13.0346667 C67.3917108,12.3093297 67.1670384,11.7333355 66.7176867,11.3066667 C66.2683351,10.8799979 65.6692086,10.6666667 64.9202892,10.6666667 C64.085779,10.6666667 63.3529188,10.9066643 62.7216867,11.3866667 C62.0904547,11.8666691 61.6357604,12.6186615 61.3575904,13.6426667 L67.3275181,13.6426667 Z M75.0573976,18.0586667 C75.806317,18.6133361 76.5124304,19.0186654 77.175759,19.2746667 C77.8390877,19.5306679 78.6200919,19.6586667 79.5187952,19.6586667 C80.9096455,19.6586667 81.6050602,19.2213377 81.6050602,18.3466667 C81.6050602,18.1333323 81.5569161,17.9520007 81.4606265,17.8026667 C81.3643369,17.6533326 81.2038565,17.509334 80.9791807,17.3706667 C80.7545049,17.2319993 80.4709897,17.0880007 80.1286265,16.9386667 C79.7862633,16.7893326 79.3583158,16.5973345 78.8447711,16.3626667 C78.4168171,16.1706657 77.994219,15.9520012 77.5769639,15.7066667 C77.1597088,15.4613321 76.790604,15.1680017 76.4696386,14.8266667 C76.1486731,14.4853316 75.8865552,14.0906689 75.6832771,13.6426667 C75.479999,13.1946644 75.3783614,12.672003 75.3783614,12.0746667 C75.3783614,11.2426625 75.5441911,10.5173364 75.8758554,9.89866667 C76.2075197,9.27999691 76.6568646,8.76800203 77.2239036,8.36266667 C77.7909426,7.95733131 78.4489119,7.65333435 79.1978313,7.45066667 C79.9467507,7.24799899 80.7491523,7.14666667 81.6050602,7.14666667 C82.6321497,7.14666667 83.6271277,7.31733163 84.5900241,7.65866667 C85.5529205,8.00000171 86.4837063,8.56532939 87.3824096,9.35466667 L85.0714699,11.9786667 C83.9373919,11.0399953 82.7605362,10.5706667 81.5408675,10.5706667 C80.9203342,10.5706667 80.4602907,10.6879988 80.1607229,10.9226667 C79.8611551,11.1573345 79.7113735,11.4239985 79.7113735,11.7226667 C79.7113735,11.9573345 79.7488189,12.1546659 79.8237108,12.3146667 C79.8986028,12.4746675 80.0430351,12.6293326 80.257012,12.7786667 C80.470989,12.9280007 80.7759016,13.0986657 81.171759,13.2906667 C81.5676164,13.4826676 82.0865028,13.7279985 82.7284337,14.0266667 C83.7555232,14.5173358 84.5686235,15.0773302 85.167759,15.7066667 C85.7668946,16.3360031 86.0664578,17.1306619 86.0664578,18.0906667 C86.0664578,18.9653377 85.9006282,19.7226635 85.5689639,20.3626667 C85.2372995,21.0026699 84.7879546,21.5306646 84.2209157,21.9466667 C83.6538767,22.3626687 82.9852087,22.671999 82.2148916,22.8746667 C81.4445745,23.0773343 80.6207755,23.1786667 79.7434699,23.1786667 C78.459608,23.1786667 77.2560056,23.013335 76.1326265,22.6826667 C75.0092474,22.3519983 73.9554266,21.7813374 72.9711325,20.9706667 L75.0573976,18.0586667 Z M91.8384578,11.2106667 L89.5917108,11.2106667 L90.2657349,7.65866667 L92.5124819,7.65866667 L93.4111807,2.79466667 L97.9046747,2.79466667 L96.9738795,7.65866667 L100.729157,7.65866667 L100.055133,11.2106667 L96.2998554,11.2106667 L95.1122892,17.2586667 C95.0480961,17.5573348 95.016,17.8346654 95.016,18.0906667 C95.016,18.5173355 95.1283362,18.8586654 95.353012,19.1146667 C95.5776879,19.3706679 95.9253952,19.4986667 96.3961446,19.4986667 C96.8240985,19.4986667 97.1932033,19.429334 97.5034699,19.2906667 C97.8137365,19.1519993 98.1507452,18.9440014 98.514506,18.6666667 L100.311904,21.4506667 C99.5629842,22.0693364 98.7659319,22.5173319 97.9207229,22.7946667 C97.0755138,23.0720014 96.2249681,23.2106667 95.3690602,23.2106667 C92.0952125,23.2106667 90.4583133,21.7813476 90.4583133,18.9226667 C90.4583133,18.6239985 90.4797106,18.3200015 90.522506,18.0106667 C90.5653014,17.7013318 90.6187949,17.3653351 90.682988,17.0026667 L91.8384578,11.2106667 Z" id="fastest:" fill="#232323"></path>
            <polygon id="Path" fill="#FF4C4C" points="103.452 17.6426667 108.459036 17.6426667 107.496145 22.6666667 102.489108 22.6666667"></polygon>
            <polygon id="Path" fill="#FF4C4C" points="105.40988 7.65866667 110.416916 7.65866667 109.454024 12.6826667 104.446988 12.6826667"></polygon>
        </g>
    </g>
</svg>